<svg xmlns="http://www.w3.org/2000/svg" xmlns:xlink="http://www.w3.org/1999/xlink" id="Capa_1" x="0px" y="0px" width="1080px" height="810px" viewBox="0 0 1080 810" style="enable-background:new 0 0 1080 810;" xml:space="preserve"><style type="text/css">	.st0{fill:#FFFFFF;}	.st1{fill:#B9B23A;}	.st2{fill:#22773D;}	.st3{fill:none;}	.st4{fill:#3C7359;}</style><g>	<g>		<path class="st0" d="M1069.1,548.2c1-4.9,1.2-9.3,0.6-13.5c-2.3-16.9-16.3-29.2-33.2-29.2c-1.3,0-3,0.1-4.3,0.3   c-4.5,0.6-9,1.9-15.6,4.6c-7.2,3-12.7,6.9-16.9,12c-0.3,0.4-0.6,0.8-0.9,1.2c-3.2,4.3-5.1,9.3-6,14.6c-2.9,0.2-5.7,0.8-8.5,1.8   l-5,1.8c-2.3,0.8-4.4,1.9-6.4,3.2c-8.6,1.8-16.2,4.8-22.8,9c-0.8,0.5-1.6,1.2-2.4,1.8c-2.2-6.6-6.4-12.4-12.3-16.4   c-9.9-6.7-22.8-7.3-33.3-1.5l-11.8,6.5c-6.1,3.3-10.8,8.6-13.6,14.7c-1.7,0-3.4-0.1-5.1,0.1l-11.2,1.5c-4.1,0.5-7.9,1.9-11.3,3.8   c-5.3-2-11.7-2.7-17.4-2c-1.7,0.2-3.3,0.6-4.9,1c-4.1-1.5-8.3-2.3-12.7-2.3c-1.5,0-3.8,0.2-5.3,0.4c-6,0.8-11.8,3.1-17.1,6.8   c-2.1-0.1-4.8,0-6.9,0.3c-8.2,1.1-16.3,4.7-25.5,11.4c-4.6,3.3-8.9,7.4-13,12c-1.9-3.4-4.2-6.6-7.3-9.1c-8-6.6-18.6-8.6-28.4-6   c0-1.9,0.1-3.8-0.2-5.8c-1.6-10.7-7.8-20.2-17-26c-1.4-0.9-2.9-1.6-4.4-2.3c8.8-9,17.1-18.5,24.6-28.8c4.5-6.2,6.5-13.4,6.2-20.5   c9.8-15.2,17.7-31.3,23.8-48c5.2,2.5,10.6,4.2,16.3,4.8c2.2,0.3,4.3,0.4,6.4,0.4h0c4.2,0,8.3-0.5,12.3-1.4   c3.1,1.3,6.4,2.1,9.9,2.3c1.5,0.1,2.9,0.2,4.3,0.2c13.2,0,25.2-4.7,34.7-13.5c9.8-9.1,15.6-21.7,17.4-37.6c1-9.3,0.4-17.9-2-25.6   c-0.6-2-1.4-3.9-2.2-5.8c4.4-6.3,6.5-14,5.7-21.8l-5.3-47.7c-0.9-8.4-5.2-16.2-11.8-21.5c-3-2.4-6.4-4.1-10-5.3   c6.5-8.2,8.9-19.4,5.3-30.1l-4.2-12.4c-2.7-8-8.5-14.7-16.1-18.4c-1.1-0.6-2.4-0.9-3.6-1.3c2.7-8.7,1.8-18.3-3.1-26.3l-7.2-11.8   c-4.3-7-11-11.9-18.6-14.1c0.2-7.7-2.3-15.5-7.7-21.7l-8.6-9.9c-4.5-5.2-10.5-8.6-17.2-10.1c-3.6-9.7-9.8-18.5-18.5-25.6   c-9.7-8-20.7-12.6-32.3-14c-0.1-0.5-0.2-0.9-0.3-1.4c-2.7-8.1-8.6-14.7-16.2-18.4l-43.1-21.1c-7.3-3.6-15.3-4-22.6-2   c-3-2.8-6.2-5.3-9.8-7.2c-5-2.7-11.4-4.8-22.8-7.6l-20.4-4.8c-8.3-1.9-16.5-0.4-23.2,3.5c-8.9-5.4-19.7-8.3-33.1-8.5   c-8.8,0-16.9,1.5-24,4.4c-2.1,0.9-4.1,1.9-6.1,3c-6.8-3.8-14.6-5.1-22.3-3.5l-46.9,10.1c-8.3,1.8-15.6,6.8-20.1,13.9   c-0.8,1.3-1.5,2.7-2.1,4.1c-8.3-3.5-17.8-3.4-26.1,0.6l-12.4,6c-10.2,4.9-17,14.7-18,25.7c-7.7-1.3-15.5-0.7-23,1.9   c-7,2.4-14.2,6.8-22.6,13.8l-21.2,17.4c-3.6,3-6.4,6.6-8.3,10.5c-3.9,2.1-7.4,4.9-10.3,8.6l-31.6,40.5c-5.3,6.9-7.4,15.2-6.5,23.2   c-8.8,6.4-16,14.9-21,25.7c-4,8.7-6.1,17.5-6.4,26c-0.3,7.2,1,14.3,3.5,21.1c-12.8,9.6-21.2,23.4-24.1,40.5   c-1.6,9.4-1.4,18.4,0.6,26.7c1.4,6.2,4.2,12,7.6,17.4c-9.2,11.6-13.4,26.1-12.1,42.1c1.5,17.9,9.3,32.9,22.7,43.6   c11.2,8.9,25,13.4,40.9,13.4h0c2.3,0,4.7-0.1,7.2-0.3c14.7-1.2,25.7-5.9,33.7-11.3c29.7,97.1,113.9,170.4,216.8,184.7   c-6,4.4-12,10.5-17.2,19c-3.7-5.4-8.7-9.9-15-13.3c-8.7-4.6-18.8-6.2-30.3-4.6c-10,1.3-18.9,5.1-26.4,10.8   c-7.5-3.7-16-5.2-25.9-3.9c-7.3,1-18.1,4.1-28.6,12.5c-7.5-4.5-16.2-6.5-25.4-5.3c-4.9,0.7-9.6,2.2-14.4,4.6   c-2.9-0.7-6-1.1-9.1-1.1c-1.5,0-4,0.2-5.5,0.4c-5.1,0.7-9.9,2.3-14.3,4.5c-2.8-0.7-5.8-1.1-8.7-1.1c-1.4,0-3.7,0.2-5.1,0.4   c-2.1,0.3-4.1,0.7-6.1,1.3c-4-1.4-8.1-2.2-12.4-2.2c-1.3,0-3.6,0.2-5,0.3c-6.1,0.8-12,3.1-17.4,6.9c-0.3,0-0.7,0-1.1,0   c-1.9-8.5-6.5-16.1-13.5-21.6c-6.6-5.1-14.5-7.8-22.9-7.8c-1.4,0-3.8,0.2-5.3,0.4c-7.7,1.1-14.7,4.4-20.5,9.5   c-4.9-0.4-9.9,0.1-14.6,2c-1.7,0.7-3,1.2-3.9,1.5c-2.6,0.6-5,1.1-7.1,1.4l-30.1,4.1c-22.2,3-40.4,13.6-52.6,30.9   c-11.6,16.5-16.4,35-13.9,53.5c1.5,11.3,5.3,20.7,11.1,27.8c1.6,2,3.3,3.8,5.2,5.4c-0.4,1.8-0.8,3.6-0.9,5.4l-0.4,4.5   c-0.8,10.6,3.6,20.9,11.9,27.5c5.8,4.6,12.9,7.1,20.1,7.1c3.1,0,6.3-0.5,9.4-1.4c3.9-1.2,7.6-2,11.2-2.5c1.8-0.3,4.1-0.4,7.1-0.6   c7.1-0.5,11.2-0.9,12.8-1.1c2.3-0.3,4.7-0.8,7.4-1.4c7.6-1.8,13.9-6.5,18.3-12.7c6.7,5.4,14.9,8.3,23.6,8.3c1.4,0,3.9-0.2,5.4-0.4   c6.4-0.9,12.5-3.4,18.6-7.3c2.6,0.7,5.3,1.2,8.1,1.2c1.4,0,2.8-0.1,4.3-0.3l11.7-1.6c6.9-0.9,13-4.1,17.7-8.6   c4.6,2.4,9.7,3.9,14.9,3.9c1.4,0,2.9-0.1,4.3-0.3l11.3-1.5c3.3-0.5,6.5-1.4,9.4-2.8c3.2,0.5,6.5,0.6,9.8,0.2l11.1-1.5   c3.5-0.5,6.7-1.5,9.7-3c5.3,1.9,11.8,2.6,17.4,1.8c6.5-0.9,12.6-3.4,19-7.7c4.3,1.4,8.9,2.4,13.6,2.4c2,0,4.1-0.1,6.3-0.4   c9.6-1.3,19-5.3,28.1-11.9c6.4,3,13.6,4.6,21.6,4.6c2.9,0,5.9-0.2,9.3-0.7c15.1-2.1,27.9-8.8,37.2-19.5c2.2-2.5,4-5.2,5.6-7.9   c1.3,1.7,2.6,3.4,4.1,4.9c7.8,7.6,18.3,11.8,29.3,11.8c2,0,4.1-0.1,6.3-0.4c9.6-1.3,18.9-5.3,28.1-11.9c4.5,2.4,9.5,3.8,14.7,3.8   c1.4,0,2.8-0.1,4.3-0.3l11.7-1.6c4.2-0.6,8.1-1.9,11.6-3.9c4.2,1.6,8.7,2.4,13.3,2.4c1.3,0,3.6-0.1,4.9-0.3   c8.5-1,16.5-4.8,24.2-11.3c4.5-3.7,8.7-8.2,12.7-13c1.4,1.9,3,3.7,4.8,5.3c6.9,6.2,15.7,9.6,25,9.6c1.4,0,3.6-0.1,5-0.3   c6.8-0.9,13.3-3.6,19.9-7.7c4.5,1.7,9.3,2.7,14.3,2.7c1.9,0,4-0.1,5.8-0.4c4.7-0.6,9.3-2,13.8-4.1c2.6,0.6,5.3,0.9,8,0.9   c1.5,0,4.1-0.2,5.6-0.4c5.6-0.8,11-2.6,16-5.3c5.4-2.8,10.6-6.6,15.4-10.9c1.8-1.7,4-3.8,8.2-8.7c1.1,1.5,2.1,2.9,3.4,4.2   c6,5.9,14.1,9.2,22.4,9.2c1.4,0,2.9-0.1,4.3-0.3l11.7-1.6c7.5-1,14.2-4.6,19.1-9.9c6.2,4.2,13.5,6.7,21.2,6.7c1.5,0,4-0.2,5.4-0.4   c5.7-0.8,11.3-2.7,16.8-5.7c3.6,1.1,7.5,1.7,11.4,1.7c1.4,0,3.7-0.2,5.2-0.3c7.6-1,14.3-4.3,20.4-8.8c4.6,2,9.6,3.1,14.8,3.1   c1.5,0,4-0.2,5.5-0.4c7.4-1.1,14.7-4.1,22.4-9.4c0.5-0.4,1.1-0.8,1.7-1.2c5.6,2.8,11.8,4.5,18.3,4.5c1.8,0,3.7-0.1,5.8-0.4   c4.7-0.6,9.3-2,13.7-4.1c2.6,0.6,5.2,0.9,8,0.9c1.4,0,3.8-0.2,5.3-0.4c5.5-0.7,10.9-2.5,16.1-5.2c2.8-1.4,5.5-3.2,8.2-5.1   c5.3,2.6,11.1,4.1,17.1,4.1c1.4,0,3.9-0.2,5.3-0.3c11.8-1.6,22.2-8.3,28.6-18.5c3.7-6,7.8-15.9,6-29.6c-0.7-5.1-2.3-9.9-4.7-14.3   l3.7-34.4C1067.7,558.5,1068.7,550.3,1069.1,548.2z"></path>	</g>	<g>		<g>			<path class="st1" d="M726.3,360.8c0,118.8-96.3,215.1-215.1,215.1c-118.8,0-215.1-96.3-215.1-215.1    c0-118.8,96.3-215.1,215.1-215.1C630,145.7,726.3,242,726.3,360.8z"></path>		</g>		<g>			<polygon class="st2" points="505.2,423.7 460.8,316 416.5,208.4 372.1,316 327.7,423.7 397.5,423.7 397.5,487.2 428.9,487.2     428.9,423.7    "></polygon>		</g>		<g>			<polygon class="st2" points="673.2,423.7 628.8,316 584.4,208.4 540.1,316 495.7,423.7 565.5,423.7 565.5,487.2 596.9,487.2     596.9,423.7    "></polygon>		</g>		<g>			<path class="st3" d="M499.8,154.6c-112,0-202.8,90.8-202.8,202.8c0,112,90.8,202.8,202.8,202.8c67.3,0,126.9-33,163.7-83.5    l-8.6-6.5l8.6,6.5c24.5-33.5,39.1-74.7,39.1-119.3c0-46.5-15.8-89.3-42.2-123.5L647,245.9l13.4-11.9    C623.3,185.8,565.2,154.6,499.8,154.6z"></path>		</g>		<g>			<path class="st2" d="M499.8,560.3c-112,0-202.8-90.8-202.8-202.8c0-112,90.8-202.8,202.8-202.8c65.5,0,123.5,31.2,160.6,79.3    l22.6-20c-42.7-54.4-108.8-89.5-183.3-89.5c-128.7,0-233,104.3-233,233c0,128.7,104.3,233,233,233c77.2,0,145.4-37.7,187.8-95.5    l-24.1-18.1C626.6,527.3,567.1,560.3,499.8,560.3z"></path>		</g>		<g>			<g>				<path class="st2" d="M214.5,370.1l3-12.9c7.2,1.4,12.7,4.2,16.4,8.4c3.8,4.2,6,9.8,6.5,16.7c0.7,8.5-1.7,15.8-7.1,21.8     c-5.4,6-13.2,9.4-23.3,10.2c-10.7,0.9-19.3-1.2-25.7-6.3c-6.4-5.1-9.9-12.1-10.7-21.1c-0.6-7.9,1.2-14.5,5.4-19.8     c2.5-3.2,6.3-5.7,11.3-7.6l4.1,12.6c-3.3,1-5.8,2.8-7.5,5.4c-1.7,2.6-2.5,5.6-2.2,9.1c0.4,4.8,2.4,8.5,6.1,11.2     c3.7,2.7,9.3,3.7,17,3.1c8.1-0.7,13.8-2.6,17-5.8c3.2-3.2,4.6-7.2,4.3-11.9c-0.3-3.5-1.6-6.3-4-8.6     C222.9,372.3,219.3,370.8,214.5,370.1z"></path>			</g>			<g>				<path class="st2" d="M205.5,345.2c-6.5-1.1-11.8-3-15.9-5.7c-3-2-5.6-4.5-7.7-7.4c-2.2-3-3.6-6-4.4-9.2c-1-4.2-1.1-9-0.2-14.2     c1.6-9.4,5.8-16.4,12.5-21.1c6.8-4.6,15.4-6.1,25.7-4.4c10.3,1.7,17.9,5.9,22.7,12.5c4.9,6.6,6.5,14.5,4.9,23.9     c-1.6,9.5-5.8,16.5-12.5,21.2C224.1,345.5,215.6,346.9,205.5,345.2z M207.3,331.9c7.2,1.2,13,0.5,17.3-2.2     c4.3-2.7,6.9-6.6,7.7-11.7c0.9-5.1-0.3-9.7-3.4-13.6c-3.1-3.9-8.4-6.5-15.8-7.8c-7.3-1.2-13-0.6-17.2,2     c-4.1,2.6-6.7,6.5-7.6,11.9c-0.9,5.3,0.2,9.9,3.3,13.8C194.7,328.1,199.9,330.6,207.3,331.9z"></path>			</g>			<g>				<path class="st2" d="M219.6,271.6c-6-2.7-10.6-5.9-13.9-9.6c-2.4-2.7-4.2-5.8-5.5-9.2c-1.3-3.4-1.9-6.7-1.8-10     c0.1-4.4,1.3-9,3.5-13.7c4-8.7,9.8-14.4,17.6-17.1c7.8-2.7,16.4-1.9,26,2.5c9.5,4.3,15.7,10.3,18.7,17.9     c3,7.6,2.5,15.7-1.4,24.4c-4,8.7-9.9,14.5-17.6,17.2C237.5,276.6,228.9,275.9,219.6,271.6z M224.8,259.2     c6.7,3,12.4,3.8,17.3,2.3c4.8-1.5,8.3-4.6,10.5-9.4c2.2-4.7,2.2-9.4,0.2-14c-2-4.6-6.4-8.5-13.3-11.6     c-6.7-3.1-12.4-3.9-17.1-2.5c-4.7,1.4-8.1,4.6-10.3,9.5c-2.2,4.9-2.4,9.6-0.4,14.1C213.6,252.3,218,256.1,224.8,259.2z"></path>			</g>			<g>				<path class="st2" d="M288.3,211l-42.4-33l-11.8,15.1l-8.6-6.7l31.6-40.5l8.6,6.7L254,167.7l42.4,33L288.3,211z"></path>			</g>			<g>				<path class="st2" d="M311.8,181.8l-41-50l21.2-17.4c5.3-4.4,9.6-7.1,12.7-8.2c3.2-1.1,6.4-1.1,9.8,0c3.4,1.1,6.2,3.1,8.7,6.1     c3.1,3.7,4.5,7.7,4.3,12c-0.2,4.3-2.2,8.5-6.1,12.7c3.2-0.5,6.2-0.6,8.9-0.2c2.7,0.4,6.8,1.5,12.4,3.4l14.1,4.7l-12,9.9     l-16.2-4.9c-5.8-1.7-9.6-2.7-11.3-3c-1.8-0.2-3.4-0.1-4.7,0.4c-1.4,0.5-3.2,1.7-5.6,3.6l-2.1,1.7l17.1,20.9L311.8,181.8z      M298.2,144.7l7.5-6.1c4.8-4,7.7-6.7,8.6-8.1c0.9-1.4,1.2-2.9,1.1-4.4c-0.1-1.6-0.8-3.1-2.1-4.6c-1.4-1.7-2.9-2.7-4.7-3     c-1.7-0.3-3.5,0.1-5.4,1.2c-0.9,0.6-3.4,2.5-7.5,5.9l-7.9,6.5L298.2,144.7z"></path>			</g>			<g>				<path class="st2" d="M412.8,118.4l-12.8,6.1l-11.4-10.8l-23.3,11.2l1.5,15.5l-12.5,6l-5.2-69.2l12.5-5.9L412.8,118.4z      M380.1,105.7l-18.4-17.8l2.5,25.4L380.1,105.7z"></path>			</g>			<g>				<path class="st2" d="M416.6,118.2l-13.7-63.2l46.9-10.1l2.3,10.7L418,62.9l3,14l31.7-6.9l2.3,10.7l-31.7,6.9l3.7,17.2l35.3-7.6     l2.3,10.6L416.6,118.2z"></path>			</g>			<g>				<path class="st2" d="M469.5,86l12.7-1c0.7,4.3,2.2,7.4,4.5,9.5c2.3,2,5.4,3.1,9.4,3.1c4.2,0.1,7.4-0.8,9.5-2.5     c2.2-1.7,3.3-3.8,3.3-6.2c0-1.5-0.4-2.8-1.3-3.9c-0.9-1.1-2.4-2-4.7-2.9c-1.5-0.6-5-1.6-10.4-3c-7-1.8-11.8-4.1-14.6-6.6     c-3.9-3.6-5.8-8-5.7-13.1c0-3.3,1-6.3,2.9-9.2c1.9-2.8,4.6-5,8.2-6.4c3.5-1.4,7.8-2.1,12.8-2c8.1,0.1,14.2,2,18.2,5.6     c4,3.6,6.1,8.4,6.2,14.3L507.5,62c-0.5-3.3-1.6-5.7-3.5-7.2c-1.8-1.5-4.6-2.3-8.2-2.3c-3.8-0.1-6.8,0.7-9,2.2     c-1.4,1-2.1,2.3-2.1,4c0,1.5,0.6,2.9,1.9,4c1.6,1.4,5.6,2.9,11.9,4.5c6.3,1.6,11,3.2,14,4.9c3,1.6,5.4,3.9,7,6.7     c1.7,2.8,2.5,6.3,2.4,10.3c-0.1,3.7-1.1,7.2-3.3,10.4c-2.1,3.2-5.1,5.6-8.8,7.1c-3.8,1.5-8.5,2.2-14.1,2.1     c-8.2-0.1-14.4-2.1-18.8-6C472.7,98.8,470.2,93.2,469.5,86z"></path>			</g>			<g>				<path class="st2" d="M529.6,108.8l14.8-63l20.4,4.8c7.7,1.8,12.7,3.3,14.9,4.5c3.4,1.8,5.9,4.6,7.6,8.3     c1.7,3.7,1.9,8.1,0.8,13.1c-0.9,3.9-2.4,7-4.4,9.2c-2,2.3-4.3,4-6.8,5c-2.5,1-4.9,1.5-7.3,1.4c-3.2-0.1-7.6-0.9-13.4-2.2l-8.3-2     l-5.6,23.8L529.6,108.8z M554.6,59.5l-4.2,17.9l6.9,1.6c5,1.2,8.4,1.6,10.3,1.4c1.8-0.3,3.4-1,4.7-2.2c1.3-1.2,2.2-2.7,2.6-4.6     c0.5-2.3,0.3-4.3-0.7-6.1c-1-1.8-2.5-3.1-4.4-4c-1.4-0.6-4.5-1.5-9-2.6L554.6,59.5z"></path>			</g>			<g>				<path class="st2" d="M584.8,123l28.5-58l43.1,21.1l-4.8,9.8l-31.3-15.4l-6.3,12.9l29.1,14.3l-4.8,9.8l-29.1-14.3l-7.8,15.8     l32.4,15.9l-4.8,9.8L584.8,123z"></path>			</g>			<g>				<path class="st2" d="M682.6,156.8l7.2,11.1c-6,4.2-11.8,6.2-17.5,6c-5.7-0.2-11.2-2.5-16.5-6.9c-6.6-5.4-10.2-12.2-10.8-20.3     c-0.5-8,2.4-16,8.9-23.8c6.9-8.3,14.3-13,22.4-14.1c8.1-1.1,15.6,1.3,22.6,7c6.1,5,9.6,10.9,10.4,17.7c0.5,4-0.3,8.5-2.4,13.4     l-12-5.8c1.5-3.1,2-6.1,1.4-9.2c-0.6-3-2.3-5.7-5-7.9c-3.7-3.1-7.8-4.2-12.3-3.4c-4.5,0.7-9.2,4.1-14.1,10.1     c-5.2,6.3-7.7,11.7-7.7,16.3c0.1,4.5,1.9,8.3,5.5,11.3c2.7,2.2,5.7,3.2,9,3.1C675.2,161.3,678.8,159.8,682.6,156.8z"></path>			</g>			<g>				<path class="st2" d="M682,190.4l48.8-42.5l8.6,9.9l-48.8,42.4L682,190.4z"></path>			</g>			<g>				<path class="st2" d="M728.2,256.9l-7.4-12.1l9.6-12.5l-13.5-22l-15.3,3.1l-7.2-11.8l68.3-12.3l7.2,11.8L728.2,256.9z      M737.5,223.1l15.8-20.1l-25,5.1L737.5,223.1z"></path>			</g>			<g>				<path class="st2" d="M728.8,261.2l60.8-20.5l4.2,12.4l-50.4,17l10.4,30.8l-10.3,3.5L728.8,261.2z"></path>			</g>			<g>				<path class="st2" d="M744.6,310.4l64.3-7.2l5.3,47.7l-10.9,1.2l-3.9-34.7l-14.3,1.6l3.6,32.3l-10.8,1.2l-3.6-32.3l-17.5,2     l4,35.9l-10.8,1.2L744.6,310.4z"></path>			</g>			<g>				<path class="st2" d="M771.1,366.3l-0.1,12.8c-4.3,0.3-7.6,1.5-9.9,3.6c-2.2,2.1-3.6,5.1-4,9.1c-0.5,4.2,0.1,7.4,1.6,9.7     c1.5,2.3,3.5,3.6,5.8,3.9c1.5,0.2,2.9-0.1,4-0.9c1.2-0.8,2.3-2.2,3.3-4.4c0.7-1.5,2-4.8,3.9-10.1c2.5-6.8,5.1-11.4,8-14     c4-3.5,8.5-5.1,13.6-4.5c3.3,0.4,6.2,1.6,8.9,3.8c2.6,2.2,4.5,5.1,5.6,8.7c1.1,3.7,1.4,8,0.9,12.9c-0.9,8.1-3.3,13.9-7.3,17.6     c-4,3.7-8.9,5.3-14.9,4.9l0.9-13.1c3.4-0.2,5.9-1.1,7.5-2.8c1.7-1.7,2.7-4.3,3.1-8c0.4-3.8,0-6.8-1.3-9.1     c-0.9-1.5-2.1-2.3-3.8-2.5c-1.5-0.2-2.9,0.3-4.1,1.5c-1.6,1.5-3.4,5.3-5.6,11.5c-2.2,6.1-4.2,10.7-6.2,13.5     c-1.9,2.8-4.4,5-7.3,6.4c-2.9,1.4-6.5,1.9-10.5,1.4c-3.7-0.4-7-1.8-10-4.2c-3-2.4-5.1-5.6-6.2-9.5c-1.1-3.9-1.4-8.7-0.8-14.2     c0.9-8.1,3.5-14.2,7.7-18.1C758.1,368.4,763.8,366.4,771.1,366.3z"></path>			</g>		</g>		<g>			<g>				<path class="st4" d="M52,775.3l1.2-15l3-1.1c5.6-2,6.9-3.2,7-3.3c0.7-0.7,1.3-1.6,1.6-2.5c0.7-2.1,2.2-9,4.9-30l4.8-41.5     c-3.4,1.1-6.4,2.7-9,4.7c-4.2,3.2-7.3,7-9.4,11.6c-2,4.5-2.8,8.8-2.2,12.9c0.2,1.6,0.7,3.3,1.3,5.1c0.1,0.3,0.6,1.4,2.3,3.8     c2.5,3.4,3.7,5.7,4,7.7c0.3,2.4-0.4,4.9-2,6.9c-1.7,1.9-3.9,3.1-6.5,3.4c-0.5,0.1-1,0.1-1.4,0.1c-2.3,0-5.7-0.8-8.7-4.5     c-2.8-3.4-4.5-8.2-5.4-14.6c-1.6-11.8,1.5-23.3,9.3-34.3c7.9-11.1,19.4-17.7,34.2-19.7L111,661c3.2-0.4,6.8-1.1,10.5-2     c0.5-0.1,2-0.5,6.9-2.5l7.7-3.1l-0.9,8.2c-1.2,11.4-1.8,18.3-1.9,21.3l-0.1,4.2l-14.5,2l0.4-6.1c0.3-5.2,0.3-7,0.2-7.5     c-0.6-0.1-2.1,0-3.7,0.2L97,678.2c-0.2,1.5-0.5,3.4-0.8,5.8c-1,7.6-1.8,14-2.4,19.4l9-1.2c2.4-0.3,3.7-0.7,4.3-0.9     c0.1-0.4,0.4-1.3,0.5-2.7l0.4-3.9l14.4-2l-0.7,6.3c-0.7,6.6-1.2,13.7-1.4,20.9l-0.1,4.2l-14.1,1.9l0-5.7c0-1.3,0-2.3,0-3.1     c-0.8,0-1.8,0.1-3,0.2l-10.8,1.5c-0.6,6.5-1.4,13.5-2.5,20.7c-0.9,5.7-1.7,10.6-2.5,14.7c1.6-0.1,3.1-0.2,4.5-0.4     c1.9-0.3,3.8-0.7,5.6-1.2l7.5-2.1l-2.4,15.7l-3.2,0.8c-1.7,0.4-3.3,0.7-4.7,0.9c-1.2,0.2-5,0.5-11.2,0.9     c-3.9,0.3-6.7,0.5-8.9,0.8c-4.9,0.7-10,1.8-15.3,3.4L52,775.3z M85.4,674.5l-5.8,50.1c-3,23.7-4.5,29.6-5.3,32     c-0.4,1.1-0.9,2.1-1.5,3.1c0,0,0.1,0,0.1,0c0.9-0.1,1.9-0.2,3-0.4l0.3-1.3c1.1-4.6,2.3-11.4,3.6-20c1.3-8.5,2.2-16.6,2.7-24     l0.6-5.5c0.6-6.7,1.6-15.2,3.1-26.1c0.5-3.9,0.9-6.7,1.1-8.3L85.4,674.5z"></path>			</g>			<g>				<path class="st4" d="M147.3,761.9c-2.5,0-4.9-0.8-6.7-2.4c-2.2-1.8-3.5-4.4-4-7.7c-0.9-6.6,0.5-21.2,4.2-44.5     c-0.8,1-1.7,2.2-2.8,3.6l-2.7,3.4l-12.3-7.1l3.1-4.5c4.8-7,9.3-12,13.7-15.4c4.8-3.6,9-5.6,12.9-6.1c3-0.4,5.3,0.1,7.3,1.3     c2.3,1.4,3.7,3.7,4.1,6.4c0.2,1.4,0.2,4.3-2.5,21.4c-2.2,14.2-3.2,22.5-3.6,27.2c1.2-1.4,2.8-3.2,4.7-5.5l3-3.7l11.5,8.5     l-3.3,4.1c-6.7,8.3-11.4,13.3-14.8,15.9c-3.9,2.9-7.1,4.5-10.1,4.9C148.5,761.8,147.9,761.9,147.3,761.9z M149.3,693     c1.4,1,2.3,2.6,2.6,4.5c0.2,1.4,0.2,3-0.1,4.7c-5.4,32.3-5.8,44-5.3,48.2c0.1,0.9,0.4,1.3,0.5,1.4l0.4,0.1c0.1,0,0.3,0,0.4,0     c0.4-0.1,1.4-0.3,3.3-1.5c-0.3-0.2-0.6-0.5-0.9-0.8c-1.1-1.1-1.9-2.7-2.1-4.5c-0.4-2.8-0.4-9.5,3.8-36.2     c1.8-11.3,2.3-15.9,2.4-17.7c0,0-0.1,0-0.1,0C153.1,691.3,151.5,691.7,149.3,693z M156.8,671.4c-2.3,0-4.6-0.8-6.4-2.2     c-2.2-1.8-3.6-4.3-4-7.4c-0.5-3.6,0.3-7,2.3-9.8c2.1-3,5-4.8,8.5-5.3c3.4-0.4,5.7,0.3,8,2.1c2.2,1.8,3.6,4.2,4,7.2     c0.5,3.5-0.4,7-2.4,9.9c-2.7,4-6.1,5.2-8.5,5.5C157.8,671.3,157.3,671.4,156.8,671.4z M159,656.6c-1.1,0-1.6,0.2-2.2,1.1     c-0.6,0.8-0.7,1.7-0.6,2.8c0.1,0.7,0.3,0.8,0.3,0.9l0.2,0.1l0.2,0c0.2,0,0.8-0.1,1.6-1.3c0.6-0.9,0.9-1.8,0.7-2.9     C159.2,656.7,159.1,656.6,159,656.6z"></path>			</g>			<g>				<path class="st4" d="M173.7,756.2l3.4-28.3c1.1-9.1,2-17.9,2.7-26.4c-1,1.2-2.2,2.7-3.7,4.8l-3.2,4.2l-10.3-8.9l2.6-3.7     c4.6-6.5,9.4-11.6,14.5-15.3c5.5-4,9.7-6.1,13.3-6.5c0.5-0.1,0.9-0.1,1.3-0.1c1.6,0,3.1,0.4,4.3,1.2c1.7,1,2.9,2.7,3.3,4.7     c1.5-2,3-4,4.6-5.8c3.8-4.4,7.2-6.6,10.6-7.1c2.7-0.4,5.5,0.3,7.7,1.9c2.3,1.7,3.7,4,4.1,6.8c0.4,2.7-0.3,5.3-2.1,7.6     c-1,1.3-2.9,3-8.9,6c-3.1,1.6-5.7,3.3-7.5,5.1c-1.9,1.9-3.9,4.7-6,8.4c-2.2,3.7-3.6,6.9-4.3,9.5c-0.5,1.8-1.3,6.7-2.5,19.4     l-1.9,19.7L173.7,756.2z M188.2,688.8c1,1,1.7,2.4,1.9,4.1c0.1,0.9,0.1,2.2-0.1,5.4c-0.8,9.9-1.8,20.2-3,30.8l-1.9,15.5l1.4-0.2     l1.1-11.8c1.3-14.6,2.2-19,2.8-21c0.6-2.4,1.7-5.1,3.2-8l-3.3-0.9l1.5-14.6c0-0.5,0.1-0.9,0.1-1.3     C190.9,687.2,189.7,687.8,188.2,688.8z M218.4,678.8c0,0-1,0.2-3.3,2.5c3.2-1.6,3.9-2.4,3.9-2.4l0,0L218.4,678.8z"></path>			</g>			<g>				<path class="st4" d="M222.5,749.6l4.4-45c0.4-4.2,0.7-7.3,1-9.8c-1,1.1-2.2,2.5-3.5,4.2l-3.5,4.4l-9.8-9.9l2.6-3.4     c4.8-6.3,9.6-11.1,14.3-14.5c5.1-3.6,9.3-5.6,12.8-6.1c2.3-0.3,4.3,0.1,5.9,1.1c2,1.4,3.1,3.2,3.4,5.4c0.1,0.5,0.1,1,0.1,1.9     c7.1-7.5,13.3-11.5,18.9-12.3c3.2-0.4,5.8,0.3,7.9,1.9c1.6,1.3,2.7,3.1,3.3,5.4c1.9-1.9,3.6-3.6,5.4-4.9     c4.9-3.8,8.7-5.8,12.2-6.3c3.6-0.5,6.7,0.3,9.1,2.2c2.4,1.9,3.9,4.9,4.5,8.9c0.3,2,0.3,4.3,0,6.9c-0.2,2.3-1.3,9.3-3.1,20.7     c-1.5,9.2-2.2,14.9-2.6,18.4c1.5-1.7,3-3.5,4.5-5.5l3.2-4.1l11,9.2l-3.6,3.9c-0.9,1-2.7,3-5.3,6.1c-5.3,6.2-7.3,8.1-8.4,8.9     c-3.6,2.8-6.8,4.4-9.8,4.8c-0.4,0.1-0.9,0.1-1.3,0.1c-1.8,0-4.6-0.6-7.3-3.2c-2.2-2.1-3.6-5.2-4.1-9.1c-0.4-2.8-0.4-6.2-0.1-10     c0.3-3.9,1.5-12.2,3.4-24c0.9-5.4,1.3-8.9,1.6-11.1c-3.4,2.8-6.1,6.1-8.2,9.6c-1,1.6-2.3,5-3.1,11.8     c-1.7,13.2-2.9,24.1-3.5,32.5l-0.3,4l-21.4,2.9l5.8-55.9c0,0,0-0.1,0-0.1c0,0,0,0-0.1,0.1c-4.3,4-7.2,7.7-8.7,10.9     c-1.5,3.2-2.6,8.2-3.2,15l-2.8,31.3L222.5,749.6z M236.3,682c1,1,1.8,2.3,2,4.2c0.1,0.9,0.3,2.1-1.5,19.4l-3.2,32.4l1.1-0.1     l2.1-23.4c0.3-3,0.6-5.7,1.1-8.2l0.7-12.8c0.2-2.8,0.5-6.5,1.1-11.2c0.1-0.9,0.2-1.6,0.3-2.2C239.1,680.4,237.9,681,236.3,682z      M265.6,677.6c0.3,0.2,0.5,0.3,0.8,0.6c1.1,1,2.4,2.5,2.7,5.1c0.1,0.7,0.1,1.7-0.4,7.3l-4.5,43.3l0.9-0.1     c0.7-7.9,1.8-17.6,3.3-29c0.9-6.9,2.3-12,4.4-15.6c0.2-0.4,0.5-0.8,0.8-1.3l-3.3-1.4c1-6.6,0.9-9.2,0.8-10.1     c-0.1-0.4-0.1-0.7-0.2-0.9l-0.3,0C269.4,675.7,267.8,676.2,265.6,677.6z M295.6,673.2c2.1,1,3.6,3.2,4,6     c0.2,1.8,0.2,5.3-1.8,18.1c-2.5,15.4-3.2,21.2-3.3,23.2c-0.2,3.1-0.2,5.7,0.1,7.9c0.2,1.6,0.6,2.7,1.2,3.2     c0.4,0.4,0.6,0.4,0.6,0.4c0.2-0.1,1.1-0.3,2.5-1.2c-1.6-1-2.8-2.8-3.2-5.6c-0.3-2.2-0.2-7.2,2.9-26.6c2.2-14,2.9-18.7,3-20.1     c0.2-1.8,0.2-3.3,0-4.5c-0.2-1.6-0.6-2.2-0.8-2.4c-0.1-0.1-0.6-0.3-1.6-0.1C298.8,671.7,297.7,671.9,295.6,673.2z"></path>			</g>			<g>				<path class="st4" d="M333.8,736.4c-4.1,0-7.7-1.4-10.6-4.2c-3.2-3.1-5.1-7.9-6.1-14.6c-1.6-12.1,0.4-24.7,6-37.5     c6.6-15.3,16.3-23.9,28.8-25.6c5.2-0.7,9.2,0.2,12.5,2.5c2.3,1.6,5.2,4.8,6,10.6c0.6,4.4-0.3,9-2.7,13.5     c-2.3,4.3-6.4,8.7-12.6,13.6c-2.8,2.1-8.3,5.8-16.3,10.8c0,1.7,0.2,3.3,0.4,4.7c0.5,3.7,1.3,4.6,1.3,4.6     c0.1,0.1,0.5,0.3,1.3,0.2c1.4-0.2,3-0.9,4.8-2c3-1.9,7.3-5.7,13-11.3l3.6-3.5l9.6,9.8l-2.8,3.5c-12.1,15.1-23.1,23.2-33.7,24.6     C335.5,736.3,334.6,736.4,333.8,736.4z M329.6,691.3c-2.8,8.6-3.6,16.9-2.5,24.9c0.8,5.8,2.3,8,3.1,8.8c1.2,1.2,2.8,1.5,4.9,1.2     c1.5-0.2,3-0.6,4.6-1.2c-2.3-0.3-4.3-1.3-6-2.8c-2.3-2.2-3.7-5.6-4.4-10.5c-0.2-1.5-0.4-3.1-0.4-4.9l0,0l0-0.4     c0-1.2,0-2.4,0-3.7l0.3-5.2C329.2,695.5,329.3,693.4,329.6,691.3z M348.3,671.7l-0.3,0c-0.4,0.1-1.3,0.2-2.5,1.5     c-1.6,1.7-2.9,4.2-3.8,7.5c-0.6,2.2-1.1,4.4-1.5,6.6c3-2.5,5.5-4.9,7.3-7.4c1.1-1.6,2.5-3.9,2.2-6c-0.1-1-0.4-1.7-0.8-2     C348.6,671.7,348.5,671.7,348.3,671.7z M355.2,664.2c0.1,0.1,0.1,0.1,0.2,0.2c2.3,2,3.7,4.7,4.2,8.2c0.1,0.8,0.1,1.6,0.1,2.3     c0.9-2.1,1.2-4.1,0.9-6c-0.3-2.5-1.2-3.4-1.9-3.8C357.8,664.5,356.7,664.2,355.2,664.2z"></path>			</g>			<g>				<path class="st4" d="M389.7,728.6c-4.8,0-8.9-1-12.1-3.1c-4.6-2.9-7.4-7.1-8.1-12.3c-0.4-3.1,0.3-6,2-8.4c1.8-2.4,4.3-4,7.3-4.4     c3.1-0.4,5.4,0.3,7.6,1.8c2.4,1.7,3.8,4,4.1,6.7c0.1,0.5,0.2,1.3,0.2,2.4l0.2,1.5l0,0c0,0,0,0.1,0.5,0.4     c0.7,0.4,1.6,0.5,2.7,0.3c2.1-0.3,3.9-0.9,5.3-1.8c1.2-0.7,2-1.6,2.5-2.8c0.6-1.3,0.8-2.4,0.6-3.4c-0.1-1-0.6-1.9-1.4-3     c-0.7-0.8-2.7-3-8.2-7.6c-7.2-6.1-11.3-12.7-12.3-19.5c-0.9-6.5,1-12.6,5.5-18.1c4.4-5.4,10.6-8.7,18.2-9.7     c5.8-0.8,10.4-0.2,14.1,1.8c5.3,2.8,6.9,6.7,7.3,9.5c0.4,2.7-0.4,5.4-2.1,7.6c-1.7,2.2-4.1,3.6-6.9,4c-2.4,0.3-3.8,0-5.4-0.7     c-1.4-0.6-2.9-1.8-5.1-3.9c-2.5-2.5-3.8-2.7-4-2.7c-0.7,0.1-1.3,0.3-2.1,1.4c-0.6,0.8-0.8,1.6-0.7,2.8c0.2,1.4,0.7,2.6,1.6,3.8     c0.6,0.9,2.4,3,8.3,7.7c7.6,6.2,12,12.8,12.9,19.6c1,7-1.2,13.6-6.3,19.5c-4.9,5.7-11.8,9.2-20.5,10.4     C393.3,728.5,391.4,728.6,389.7,728.6z M380.6,710.3c-0.8,0.1-0.9,0.2-1,0.4c-0.1,0.2-0.3,0.4-0.2,1.2c0.2,1.6,0.9,2.9,2,4     c-0.2-0.6-0.4-1.3-0.5-1.9l-0.2-2C380.7,711.2,380.6,710.7,380.6,710.3z M390.3,672.3c0,0.6,0,1.1,0.1,1.7     c0.6,4.3,3.6,8.8,8.8,13.3c4.7,4,7.9,6.9,9.5,9c1.8,2.2,2.9,4.6,3.4,7.1c0.2-1.2,0.2-2.4,0-3.7c-0.6-4.2-3.7-8.7-9.3-13.2     c-5.4-4.3-8.6-7.4-10.2-9.7C391.7,675.4,390.9,673.9,390.3,672.3z M411.9,657.5c0.4,0.4,0.9,0.8,1.3,1.2     c1.6,1.5,2.2,1.9,2.2,1.9l0.4-0.5c-0.1-0.6-0.8-1.3-2.1-2C413.2,657.9,412.6,657.6,411.9,657.5z"></path>			</g>			<g>				<path class="st4" d="M475.3,717.2c-4.1,0-7.7-1.4-10.5-4.2c-3.2-3.1-5.1-7.9-6-14.6c-1.6-12.1,0.4-24.7,6.1-37.6     c6.6-15.3,16.3-23.9,28.7-25.6c5.1-0.7,9.2,0.2,12.5,2.5c3.4,2.4,5.4,6,6,10.6c0.6,4.4-0.3,9-2.7,13.6     c-2.2,4.3-6.4,8.8-12.6,13.6c-2.7,2.1-8,5.6-16.3,10.8c0,1.6,0.2,3.2,0.4,4.7c0.5,3.7,1.3,4.6,1.3,4.6c0.1,0.1,0.6,0.3,1.3,0.2     c1.4-0.2,3-0.9,4.8-2c2-1.3,5.9-4.3,13-11.3l3.6-3.5l9.7,9.8l-2.8,3.5c-12.1,15.1-23.2,23.2-33.7,24.6     C477,717.1,476.1,717.2,475.3,717.2z M471.1,672.2c-2.7,8.5-3.6,16.9-2.5,24.9c0.8,5.8,2.3,8,3.1,8.8c1.2,1.2,2.8,1.5,4.9,1.2     c1.5-0.2,3-0.6,4.6-1.3c-2.3-0.3-4.4-1.3-6-2.9c-2.3-2.1-3.7-5.6-4.3-10.5c-0.2-1.6-0.4-3.2-0.4-4.9l0,0l0-0.4     c0-1.2,0-2.5,0-3.8l0.3-5.2C470.7,676.3,470.9,674.3,471.1,672.2z M489.7,652.5l-0.3,0c-0.2,0-1.1,0.2-2.4,1.5     c-1.6,1.7-2.9,4.2-3.8,7.5c-0.6,2.2-1.1,4.4-1.5,6.6c3.1-2.5,5.5-5,7.3-7.4c1.6-2.3,2.4-4.3,2.2-6c-0.1-1-0.4-1.7-0.8-2     C490.2,652.6,490,652.5,489.7,652.5z M496.7,645c0.1,0.1,0.1,0.1,0.2,0.2c2.3,2,3.7,4.7,4.2,8.2c0.1,0.8,0.1,1.6,0.1,2.3     c0.9-2.1,1.2-4.1,0.9-6c-0.3-2.5-1.3-3.4-2-3.9C499.3,645.3,498,645,496.7,645z"></path>			</g>			<g>				<path class="st4" d="M518.6,709.4l0.9-6.5c1.1-7.7,2-15.5,2.6-23.1l2.4-25.5c-1.3,1.5-2.5,3-3.7,4.7l-3,4.4l-11.2-8.8l3.1-3.9     c6.2-7.7,11.2-12.9,15.3-15.9c4.4-3.2,8.3-4.9,12-5.4c2.4-0.3,4.2,0,5.9,1c2,1.1,3.3,3,3.6,5.2c0.1,0.9,0.1,1.9,0,3.6l0,0.5     c2.6-2.6,5.3-5.2,8.3-7.7c4.7-3.9,8.9-6.1,12.6-6.6c3.3-0.5,6.6,0.4,9,2.5c2.3,2,3.7,4.8,4.2,8.5c0.3,1.9,0.3,4.1,0.1,6.7     c-0.4,3.8-1.6,11.6-3.6,23.5c-1.3,7.5-1.8,12.4-2.1,15.5c2-2.4,4.1-4.7,6.4-7l3.7-3.8l8.6,9.4l-2.3,3.3     c-4.4,6.4-9.2,11.7-14.2,15.9c-3.8,3.2-7.2,4.9-10.3,5.3c-3.2,0.4-6.7-0.5-9.1-2.9c-2.1-2.2-3.4-5.3-4-9.7     c-0.5-3.3-0.5-10.9,4-37.5c0.4-3.1,0.6-5.3,0.8-6.8c-0.7,0.5-1.4,1.1-2.4,1.9c-4,3.5-7.3,7.5-9.7,11.8     c-0.9,1.7-2.2,5.2-2.8,12.3l-3,32.3L518.6,709.4z M532.9,641.5c1,1,1.9,2.4,2.1,4.5c0.1,0.9,0.1,2.1,0,3.8l-2.9,30.9     c-0.5,5.6-1.1,11.3-1.8,17.1l1.3-0.2l2.3-24.3l-0.1,0.2l2.9-33.8C535.5,640,534.3,640.6,532.9,641.5z M564.9,695.1l0.7,0.1     c0.3,0,1-0.2,2.3-1c-0.4-0.3-0.8-0.7-1.1-1.1c-0.9-1.2-1.5-2.8-1.8-4.8c-0.3-2.5-0.5-7.8,2.1-23.4c2.4-14.6,3.3-20.5,3.5-22.8     c0.1-1.7,0.1-3.2,0-4.3c-0.2-1.4-0.5-2.1-0.8-2.4c-0.1-0.1-0.2-0.2-0.6-0.2l-0.5,0c-0.8,0.1-2.2,0.5-4.6,2.1     c2.5,0.9,4.3,3.1,4.6,5.9c0.2,1.2,0.2,3.1-1.1,13.2c-4.2,24.8-4.3,32.3-4,34.7C564.1,694.3,564.9,695.1,564.9,695.1L564.9,695.1     z"></path>			</g>			<g>				<path class="st4" d="M636.8,695.5c-2.5,0-4.9-0.9-6.8-2.6c-2.1-1.9-3.4-4.6-3.9-7.9c-0.6-4.7-0.2-13.8,1.3-28l3.8-35.6     c1.4-13.3,2.9-22.2,4.6-27.2c2.7-7.8,7.2-14.2,13.4-19.2c6.2-4.9,13.1-7.9,20.5-8.9c3.5-0.5,6.4,0.1,8.9,1.6     c2.7,1.7,4.3,4.2,4.7,7.2c0.4,3.2-0.4,6.1-2.5,8.4c-1.9,2.2-4.7,3.5-8.3,4c-1.8,0.2-4.3,0.3-7.7,0.2l-1.4,0     c-1.7,0-3.3,0.1-4.8,0.3c-1.3,0.2-1.7,0.5-1.7,0.5c0,0-1,1.2-1.7,5.8c-0.7,4.1-1.6,12.2-2.7,24.3l-3.4,34     c-1,10.4-1.6,16.7-1.9,20.4c3.1-2.8,6.2-6.2,9.2-10l3.1-4l10.6,8.5l-2.6,3.8c-3.7,5.5-8.2,10.7-13.6,15.5     c-5.9,5.3-11,8.2-15.7,8.8C637.8,695.5,637.3,695.5,636.8,695.5z M644.1,602.2c-0.8,4-1.8,10.3-2.9,20.3l-3.8,35.6     c-1.8,16.4-1.7,22.9-1.4,25.6c0.2,1.3,0.6,1.7,0.7,1.8l0.1,0.1l0.2,0c0.6-0.1,1.5-0.3,2.8-0.9c-1.4-1-2.6-2.7-2.9-5.4     c-0.1-0.9-0.2-1.7,2.3-27.8l3.4-34C643.1,611.3,643.7,606.2,644.1,602.2z M664.9,577.5c0.1,0,0.2,0,0.4,0c2.7,0.1,4.6,0.1,6-0.1     c1.3-0.2,2-0.5,2.2-0.8l-0.1-0.5c-0.6-0.4-1.4-0.3-2.2-0.2C668.9,576.3,666.9,576.8,664.9,577.5z"></path>			</g>			<g>				<path class="st4" d="M676,690.1c-3.6,0-6.9-1.3-9.4-3.9c-3.3-3.3-5.5-7.9-6.2-13.7c-0.8-6.2-0.2-13.3,2.1-21.2     c2.2-7.7,5.6-15,10.1-21.6c4.5-6.7,9.7-12,15.5-15.8c4.6-3,10.6-5,18-6c0.8-0.1,1.7-0.2,2.5-0.3l1.1-2.5l14.9-5.4l-4.5,29     c-1.3,8.1-2.2,17.4-2.9,27.8c-0.1,2.1-0.2,3.8-0.3,5.2c2-1.8,3.8-3.8,5.6-6l3.4-4.3l10.4,9.6l-3,3.6c-7.2,8.6-9.5,10.9-10.6,12     c-3.2,3-6.6,5.4-9.9,7.1c-2.4,1.3-4.8,2.1-7.3,2.4c-2.9,0.4-5-0.1-6.8-1.4c-1.1-0.8-2.7-2.3-3.3-5.1c-1.4,1.4-2.9,2.7-4.4,3.9     c-4.2,3.5-8.4,5.6-12.5,6.1C677.5,690.1,676.8,690.1,676,690.1z M671,658.5c-1,4.8-1.2,9-0.7,12.8c0.5,3.5,1.6,6.2,3.4,8     c0.9,0.9,1.8,1.1,3.2,0.9c1.4-0.2,2.8-0.7,4.4-1.7c-2.1-0.4-4-1.4-5.6-3c-2.3-2.2-3.7-5.6-4.3-10.4     C671.2,662.9,671,660.7,671,658.5z M706.8,665l-1.6,10.8c0,0.2-0.1,0.4-0.1,0.5c1-0.2,1.9-0.6,2.9-1.1c0.8-0.4,1.6-0.9,2.4-1.4     c-1.6-1-3-2.7-3.4-5.6C706.9,667.5,706.8,666.6,706.8,665z M699.5,627.6c-0.3,0-0.6,0.1-0.9,0.1c-3.7,0.5-6.6,1.9-9,4.2     c-2.5,2.4-4.7,6.9-6.6,13.1c-1.9,6.4-2.4,12.7-1.6,18.7c0.5,3.6,1.3,4.5,1.4,4.6c0.3,0.3,0.5,0.3,0.6,0.3     c2.5-0.3,5.1-2.3,7.8-5.6c3-3.7,4.9-8.9,5.8-15.6L699.5,627.6z M702.9,663.2l3.9,1.5c0-1.8,0.1-4.5,0.4-8.6     c0.7-10.7,1.7-20.3,3-28.7l1.5-9.8c-1.2,0-2.4,0.1-3.6,0.2l2.6,0.2l-3.9,30.7C706.2,654.2,704.9,659,702.9,663.2z"></path>			</g>			<g>				<path class="st4" d="M768.9,675.5l3.4-28.3c1.1-9,2-17.9,2.7-26.4c-1,1.2-2.2,2.7-3.7,4.8l-3.2,4.2l-10.2-8.9l2.6-3.7     c4.6-6.5,9.5-11.7,14.5-15.3c5.5-4,9.7-6,13.2-6.5c1.9-0.3,3.9,0.1,5.5,1c1.8,1.1,3,2.8,3.4,4.7c1.5-2,3-3.9,4.6-5.8     c3.6-4.3,7.1-6.6,10.5-7.1c3.1-0.4,5.6,0.3,7.8,2c2.3,1.7,3.7,4,4,6.7c0.4,2.8-0.4,5.4-2.1,7.6c-1.4,1.8-4.1,3.6-8.9,6     c-3.2,1.6-5.7,3.3-7.5,5.1c-1.9,1.8-3.9,4.7-6.1,8.4c-2.1,3.7-3.6,6.9-4.3,9.5c-0.5,1.8-1.3,6.7-2.5,19.4l-1.8,19.7L768.9,675.5     z M783.4,608.1c1,1,1.7,2.4,1.9,4c0.1,1,0.1,2.2-0.1,5.5c-0.8,9.9-1.8,20.2-3,30.7l-1.9,15.5l1.4-0.2l1.1-11.8     c1-10.9,1.9-17.7,2.7-21c0.7-2.4,1.7-5.1,3.2-8.1l-3.3-0.9l1.5-14.6c0-0.5,0.1-0.9,0.1-1.2C786.1,606.5,784.9,607.1,783.4,608.1     z M812.9,593.1l0.7,4.9c0,0-1.1,0.2-3.4,2.6c3.1-1.6,3.9-2.4,4-2.5L812.9,593.1z"></path>			</g>			<g>				<path class="st4" d="M830.9,669.5c-2.6,0-5-0.9-6.9-2.5c-2.2-1.9-3.5-4.8-4-8.7c-0.3-2.3-0.4-4.9-0.2-7.7c0.3-3.8,1.2-11,2.5-21     c1-7.7,1.6-12.7,1.9-16c-1,1.1-2.2,2.6-3.8,4.5l-2.7,3.4l-12.7-7.5l3.8-4.5c6.5-7.6,11.5-12.7,15.3-15.4c4.2-3,7.7-4.6,10.8-5     c3-0.4,5.3,0.4,7.2,2.2c1.8,1.6,2.9,4,3.4,7.1c0.3,2.6,0.5,8.4-2,28.8c-1.5,12-1.9,17.3-2,19.6c1.3-0.9,3.4-2.7,6.6-6.4     c4.1-4.9,6.5-9.9,7.2-15.4l4.6-37.3l21.4-2.9l-4.5,34.9c-1.5,11.3-2.2,17.9-2.6,21.7c1.2-1.5,2.9-3.6,5.1-6.5l3.2-4.2l10.5,9     l-2.7,3.7c-10.2,14-17.8,20.7-24.4,21.6c-3.1,0.4-6-0.5-8.4-2.5c-1.9-1.6-3.2-3.8-3.9-6.5c-2.3,2.3-4.8,4.5-7.5,6.6     c-4.9,3.9-9.4,6.1-13.7,6.7C831.9,669.5,831.4,669.5,830.9,669.5z M831.6,601.2c1.3,1,2.4,2.6,2.7,5c0.3,2.1,0.3,6.8-2.2,24.8     c-1.3,9.6-2.2,16.8-2.5,20.3c-0.1,2-0.1,3.9,0.2,5.7c0.3,2,0.7,2.5,0.7,2.5l0.3,0l0.3,0c1.7-0.2,3.7-1.1,5.9-2.5     c-0.8-0.4-1.6-0.9-2.4-1.5c-1.7-1.4-2.8-3.5-3.1-5.8c-0.2-1.1-0.4-3.3,2.1-23.7c2.3-18.7,2.3-24.4,2.1-26.2     c0-0.3-0.1-0.5-0.1-0.6C834.7,599.4,833.5,599.9,831.6,601.2z M859.6,641.6l3.9,1.4c-0.6,5.3-0.5,8.3-0.2,9.9     c0.1,1,0.4,1.8,0.8,2.1c0.3,0.3,0.4,0.3,0.5,0.3c0.5-0.1,1.5-0.3,3.1-1.4c-0.3-0.2-0.6-0.4-0.9-0.7c-0.8-0.6-2.2-2.3-2.6-5.1     c-0.3-2-0.1-7,2.8-29.5l2.8-22l-0.9,0.1l-3.7,29.7C864.5,631.7,862.6,636.8,859.6,641.6z"></path>			</g>			<g>				<path class="st4" d="M904.9,659.1c-2.8,0-5.4-1-7.4-3c-2.2-2.1-3.5-5.2-4.1-9.6c-0.6-4.2-0.4-10.4,0.6-19l3-26l-12.7,1.7l1.8-16     l12.8-1.7l1.9-16.5l22.6-12.3l-3,26l16.1-2.2l-1.4,16l-16.4,2.2l-2.8,23.4c-1,7.8-1.2,12-1.1,14.2c0.7-0.4,1.7-1.1,3.1-2.2     c3.7-2.9,7.4-6.2,10.8-9.9l3.4-3.6l11,10.1l-3.7,3.7c-10.6,10.5-17.7,16.9-21.6,19.6c-4.3,2.9-7.9,4.6-11.1,5     C905.9,659.1,905.4,659.1,904.9,659.1z M908.4,590l-4.5,38.7c-0.9,7.6-1.1,13.2-0.6,16.5c0.4,3,1.1,3.7,1.2,3.7l0.5,0.2l0.3,0     c0.7-0.1,2.4-0.6,5.4-2.4c-0.9-0.3-1.8-0.8-2.6-1.4c-1.7-1.4-2.8-3.4-3.2-6.2c-0.5-3.6-0.1-9.5,1-18.3l3.2-26.5l-0.2,0l2.3-19.6     l-1.1,0.6L908.4,590L908.4,590z"></path>			</g>			<g>				<path class="st4" d="M952.8,652.6c-3.6,0-6.9-1.3-9.4-3.8c-3.4-3.4-5.5-8-6.3-13.7c-0.8-6.3-0.1-13.4,2.1-21.2     c2.2-7.7,5.6-15,10.1-21.6c4.6-6.8,9.8-12.1,15.5-15.8c4.6-3,10.7-5,18-6c0.8-0.1,1.7-0.2,2.5-0.3l1.1-2.5l14.9-5.4l-4.5,29     c-1.3,8-2.2,17.3-2.9,27.8c-0.1,2.1-0.2,3.8-0.3,5.2c2-1.8,3.8-3.7,5.6-6l3.4-4.3l10.3,9.7l-3,3.6c-5.3,6.3-8.8,10.3-10.6,12     c-3.5,3.1-6.7,5.4-9.9,7.1c-2.4,1.3-4.9,2.1-7.3,2.4c-2.8,0.4-4.9-0.1-6.8-1.4c-1.2-0.9-2.7-2.4-3.3-5.1     c-1.4,1.4-2.9,2.7-4.4,3.9c-4.2,3.5-8.4,5.6-12.5,6.1C954.2,652.5,953.5,652.6,952.8,652.6z M947.7,620.9c-1,4.7-1.2,9-0.7,12.8     c0.5,3.6,1.6,6.2,3.4,8c0.8,0.8,1.8,1,3.2,0.8c1.4-0.2,2.8-0.7,4.4-1.7c-2.1-0.4-4-1.4-5.6-3.1c-2.2-2.2-3.6-5.6-4.3-10.3     C947.9,625.3,947.7,623.1,947.7,620.9z M983.5,627.2l-1.7,11c0,0.2-0.1,0.3-0.1,0.5c1-0.2,1.9-0.6,2.9-1.1     c0.8-0.4,1.6-0.9,2.4-1.4c-1.6-1-3-2.7-3.4-5.6C983.5,630,983.5,629,983.5,627.2z M976.2,590c-0.3,0-0.6,0.1-0.9,0.1     c-3.7,0.5-6.6,1.9-9,4.2c-2.5,2.5-4.7,6.9-6.6,13.2c-1.9,6.4-2.4,12.7-1.6,18.7c0.5,3.6,1.4,4.5,1.4,4.6     c0.3,0.3,0.5,0.3,0.6,0.3c2.5-0.3,5.2-2.3,7.9-5.6c3-3.7,4.9-8.9,5.7-15.6L976.2,590z M979.6,625.6l3.9,1.4     c0-1.8,0.1-4.5,0.4-8.6c0.7-10.7,1.7-20.4,3-28.7l1.5-9.8c-1.3,0-2.5,0.1-3.7,0.2l2.8,0.2l-3.9,30.6     C982.9,616.6,981.6,621.5,979.6,625.6z"></path>			</g>			<g>				<path class="st4" d="M1027.1,642.4c-2.7,0-5.3-0.9-7.4-2.6c-2.6-2.1-4.2-5-4.7-8.5c-0.6-4.4,0.2-8.5,2.4-12.2     c1-1.8,2.5-3.3,4.2-4.3l-1.1,0.2v-5.7c0-25.4-0.4-47-1.3-64.2c-0.2-2.1,0.3-4,1.4-5.5c1.4-1.7,3.3-2.9,6.3-4.2     c4.1-1.7,6.8-2.5,8.7-2.8l1-0.1c3.4,0,5.9,2.3,6.4,5.7c0.2,1.3,0.1,2.8-0.3,4.6c-0.3,1.4-1.1,7.1-3.4,26.2l-4.8,43.9l-3.5,0.5     c1.7,0.5,3.2,1.3,4.6,2.4c2.6,2.3,4.1,5.2,4.6,8.8c0.6,4.6-0.1,8.5-2.1,11.7c-2.1,3.4-5.3,5.5-9.3,6     C1028.2,642.3,1027.6,642.4,1027.1,642.4z M1027.9,623c-1.2,0.2-1.6,0.5-1.9,1.1c-1.1,1.8-1.4,3.7-1.1,5.9c0.2,1.2,0.6,1.7,1,2     c0.5,0.4,1,0.5,1.7,0.4c1-0.1,1.6-0.6,2.1-1.5c0.7-1.1,0.9-2.8,0.6-5c-0.2-1.5-0.7-2.1-1.2-2.5     C1028.6,623,1028.2,623,1027.9,623z M1029.1,545.2c0.3,5.7,0.5,11.9,0.7,18.5c1.4-11.3,2.1-16.9,2.5-19.8     c-0.5,0.2-1.1,0.4-1.7,0.7C1029.9,544.8,1029.5,545,1029.1,545.2z"></path>			</g>		</g>		<g>			<g>				<path class="st0" d="M128.3,682.7l-4.2,0.6c0.3-4.5,0.3-7.4,0.2-8.7c-0.2-1.7-1-3-2.3-3.6c-1.3-0.7-3.7-0.8-7-0.3l-5,0.8     l-1.7,0.2l-15.7,2.1c-0.1,1.2-0.6,4.4-1.3,9.5c-1.4,10.5-2.5,19.2-3.1,25.9l15.3-2.1c3.7-0.5,6.1-1.2,7.1-2.1     c1-0.9,1.7-2.9,2-5.9l4.2-0.6c-0.7,6.8-1.2,13.9-1.4,21.2l-4.3,0.6c0-3-0.1-4.8-0.2-5.3c-0.2-1.3-0.9-2.1-2.3-2.6     c-0.8-0.3-2.8-0.2-6.1,0.1l-15,2c-0.5,7.5-1.4,15.6-2.8,24.4c-1.3,8.8-2.5,15.6-3.7,20.4c4.3,0.1,8.1,0,11.4-0.5     c2.1-0.3,4.2-0.7,6.3-1.3l-0.7,4.6c-1.5,0.4-2.9,0.6-4.2,0.8c-1.2,0.2-4.8,0.5-10.9,0.9c-3.7,0.2-6.7,0.5-9.3,0.9     c-5.1,0.7-10.4,1.9-16.1,3.6l0.4-4.5c4.5-1.6,7.5-3.1,8.8-4.4c1.3-1.3,2.3-2.8,2.9-4.5c1.2-3.4,2.9-13.8,5.1-30.9l5.6-48.7     c-7,1.2-12.9,3.6-17.8,7.2c-4.9,3.7-8.5,8.2-11,13.5c-2.4,5.4-3.3,10.6-2.6,15.7c0.3,2.1,0.8,4.1,1.6,6.2     c0.4,1.2,1.4,2.8,2.9,4.9c1.9,2.6,2.9,4.4,3.1,5.5c0.2,1.1-0.2,2.1-0.9,3.1c-0.8,0.9-1.9,1.5-3.3,1.7c-2.1,0.3-3.9-0.6-5.5-2.6     c-2.2-2.7-3.6-6.8-4.4-12.1c-1.4-10.5,1.4-20.8,8.4-30.7c7-9.9,17.3-15.8,30.7-17.6l30.2-4.1c3.3-0.5,7-1.2,11-2.1     c1.2-0.3,3.7-1.2,7.6-2.7C129,672.4,128.4,679.6,128.3,682.7z"></path>			</g>			<g>				<path class="st0" d="M134.1,707.8l-3.8-2.2c4.5-6.5,8.7-11.2,12.6-14.2c4-3,7.5-4.7,10.5-5.1c1.7-0.2,3,0,4,0.6     c1,0.6,1.6,1.6,1.7,2.8c0.2,1.5-0.6,8.2-2.5,20c-3,19.3-4.3,30.9-3.7,34.7c0.1,0.8,0.4,1.3,0.8,1.8c0.4,0.5,0.9,0.6,1.3,0.6     c1.7-0.2,5.5-4.1,11.6-11.5l3.5,2.6c-6.3,7.7-10.9,12.8-14,15.1c-3.1,2.3-5.6,3.6-7.7,3.9c-1.8,0.2-3.4-0.1-4.6-1.1     c-1.2-1-2-2.5-2.3-4.6c-0.9-6.6,0.9-23.1,5.3-49.6c0.2-1.3,0.2-2.4,0.1-3.3c-0.1-1-0.7-1.5-1.6-1.4c-1.1,0.1-2.2,0.7-3.4,1.7     C140.7,699.6,138.1,702.7,134.1,707.8z M157.9,651.6c1.6-0.2,3,0.1,4.2,1.1c1.2,0.9,1.9,2.2,2.1,3.9c0.3,2.3-0.2,4.4-1.6,6.4     c-1.4,2-3,3.1-5,3.4c-1.6,0.2-3-0.2-4.2-1.1c-1.2-1-1.9-2.3-2.2-4.1c-0.3-2.3,0.2-4.5,1.5-6.3     C154.1,652.9,155.8,651.9,157.9,651.6z"></path>			</g>			<g>				<path class="st0" d="M191.2,748.8l-11.7,1.6l2.6-21.9c1.3-10.7,2.3-20.9,3-30.5c0.1-2.4,0.2-3.9,0.1-4.4c-0.2-1.3-0.8-1.8-2-1.6     c-0.8,0.1-1.9,0.8-3.4,2.1c-1.5,1.3-4.1,4.3-7.7,9.2l-2.8-2.4c4.3-6.1,8.8-10.8,13.4-14.2c4.7-3.4,8.3-5.3,11-5.6     c1-0.1,1.7,0,2.3,0.4c0.6,0.4,1,0.9,1,1.6c0.1,0.7,0,2.5-0.3,5.6l-1.5,14.6c4.2-9.1,9.2-17,15-23.9c2.8-3.3,5.3-5.1,7.5-5.3     c1.6-0.2,2.9,0.1,4.1,1c1.2,0.9,1.9,2,2,3.4c0.2,1.4-0.1,2.7-1,3.8c-0.9,1.1-3.3,2.7-7.2,4.6c-3.7,1.9-6.6,3.9-8.8,6     c-2.2,2.2-4.5,5.3-6.9,9.5c-2.4,4.2-4,7.7-4.8,10.7c-0.8,2.9-1.7,9.7-2.6,20.2L191.2,748.8z"></path>			</g>			<g>				<path class="st0" d="M220.5,695.9l-2.8-2.8c4.5-5.9,8.9-10.4,13.2-13.5c4.3-3.1,7.9-4.8,10.5-5.2c1.1-0.2,2,0,2.6,0.4     c0.6,0.4,1,1,1.1,1.9c0.1,1,0,3.1-0.4,6.2c-0.6,4.6-1,8.2-1.1,10.8c10.8-14.5,19.5-22.2,26.2-23.1c1.7-0.2,3.1,0.1,4.1,0.9     c1,0.8,1.6,2.3,1.9,4.3c0.3,2.2,0,6.1-0.8,11.6c5.1-7,9.7-12.2,13.8-15.3c4.1-3.2,7.3-5,9.8-5.3c2.2-0.3,4,0.1,5.4,1.2     c1.4,1.1,2.2,3,2.6,5.6c0.2,1.6,0.2,3.4,0,5.7c-0.2,2.2-1.3,9-3.1,20.4c-2.3,14.1-3.3,22.5-2.9,25.1c0.2,1.8,1.1,2.6,2.6,2.4     c1-0.1,1.9-0.6,2.8-1.3c2.8-2.6,5.6-5.8,8.4-9.5l3,2.5c-1,1-2.8,3.1-5.5,6.3c-3.7,4.3-6.2,7.1-7.7,8.2c-2.8,2.2-5.3,3.4-7.3,3.7     c-1.6,0.2-3.1-0.4-4.5-1.8c-1.4-1.4-2.3-3.4-2.7-6.2c-0.3-2.5-0.4-5.5-0.1-9c0.3-3.5,1.4-11.4,3.4-23.6     c1.5-9.2,2.1-14.8,1.8-16.6c-0.2-1.8-1.2-2.6-2.7-2.4c-1.3,0.2-3,1.1-5,2.7c-4.1,3.3-7.5,7.2-10,11.5c-1.7,3-3,7.6-3.7,13.7     c-1.8,13.4-2.9,24.3-3.6,32.7l-11.1,1.5l5.2-49.6c0.4-3.6,0.5-5.6,0.4-6.1c-0.1-0.9-0.4-1.5-0.9-1.8c-0.5-0.4-1.1-0.5-1.9-0.4     c-1.4,0.2-3.5,1.6-6.1,4.2c-4.7,4.4-7.9,8.5-9.7,12.3c-1.8,3.8-3,9.3-3.7,16.7l-2.4,27.4l-11.3,1.5l3.8-38.7     c1.2-11.2,1.7-17.3,1.5-18.2c-0.2-1.2-0.7-1.7-1.7-1.6C229.7,685.5,226,689.1,220.5,695.9z"></path>			</g>			<g>				<path class="st0" d="M363.2,705.3l3,3.1c-11.2,14-21.3,21.5-30.5,22.8c-3.7,0.5-6.7-0.4-9-2.6c-2.3-2.3-3.8-6.1-4.6-11.7     c-1.5-11.2,0.4-22.8,5.7-34.9c5.9-13.7,14.2-21.2,24.9-22.7c3.7-0.5,6.7,0,8.9,1.6c2.2,1.6,3.5,4,4,7.2     c0.5,3.4-0.3,6.9-2.2,10.5c-1.9,3.6-5.7,7.6-11.3,12c-2.8,2.1-8.9,6.2-18.2,12c-0.1,2.9,0,5.6,0.4,8.2c0.5,3.7,1.5,6.2,2.8,7.5     c1.4,1.3,3.2,1.8,5.5,1.5c2.1-0.3,4.4-1.2,6.8-2.8C352.6,715.2,357.2,711.2,363.2,705.3z M334.1,697.7     c7.9-4.9,13.7-9.9,17.4-14.8c2.5-3.4,3.5-6.6,3.1-9.6c-0.3-2.3-1.1-4-2.5-5.1c-1.4-1.2-3-1.6-4.9-1.4c-2,0.2-3.7,1.2-5.4,3     c-2.2,2.3-3.9,5.5-5,9.6C335.2,685.5,334.3,691.6,334.1,697.7z"></path>			</g>			<g>				<path class="st0" d="M404.9,652.5c4.7-0.6,8.4-0.2,11.2,1.2c2.8,1.5,4.3,3.4,4.7,5.7c0.2,1.4-0.2,2.7-1.1,3.9     c-0.9,1.2-2.2,1.9-3.7,2.1c-1,0.1-1.9,0-2.7-0.3c-0.8-0.3-2-1.3-3.6-2.9c-3-3-5.8-4.4-8.3-4.1c-2.2,0.3-3.9,1.4-5.4,3.3     c-1.4,1.9-2,4-1.6,6.5c0.3,2.1,1.1,4.1,2.4,6c1.3,1.9,4.4,4.8,9.3,8.7c6.6,5.4,10.3,10.8,11.1,16.4c0.8,5.5-0.9,10.7-5.1,15.5     c-4.1,4.8-9.9,7.7-17.4,8.7c-6.2,0.8-11.1,0.2-14.4-1.9c-3.4-2.1-5.3-5-5.8-8.8c-0.3-1.8,0.1-3.4,1.1-4.8c1-1.4,2.3-2.1,4-2.4     c1.5-0.2,2.8,0.1,4,1c1.2,0.8,1.9,1.9,2,3.2c0.1,0.5,0.1,1.2,0.2,2c0.1,0.7,0.1,1.3,0.2,1.8c0.2,1.7,1.2,3.1,2.8,4.1     c1.6,1,3.6,1.4,6,1c2.8-0.4,5.2-1.2,7.3-2.5c2-1.2,3.5-2.9,4.4-5.1c0.9-2.1,1.3-4.1,1-6.1c-0.3-1.9-1.1-3.7-2.5-5.4     c-1.4-1.7-4.3-4.5-8.9-8.3c-6.3-5.3-9.8-10.8-10.5-16.4c-0.7-5.1,0.8-9.9,4.4-14.3C393.5,656,398.5,653.4,404.9,652.5z"></path>			</g>			<g>				<path class="st0" d="M504.7,686.2l3,3.1c-11.2,13.9-21.4,21.6-30.5,22.8c-3.7,0.5-6.7-0.4-9-2.6c-2.3-2.3-3.8-6.2-4.6-11.7     c-1.5-11.2,0.4-22.8,5.7-34.9c5.9-13.7,14.2-21.2,24.8-22.6c3.7-0.5,6.7,0,8.9,1.6c2.2,1.6,3.5,4,4,7.3     c0.5,3.4-0.3,6.9-2.2,10.5c-1.9,3.6-5.7,7.6-11.3,12c-2.8,2.1-8.9,6.1-18.2,12c-0.1,2.9,0,5.6,0.4,8.2c0.5,3.7,1.4,6.2,2.8,7.5     c1.4,1.3,3.2,1.8,5.5,1.5c2.1-0.3,4.4-1.2,6.8-2.8C494.1,696,498.7,692,504.7,686.2z M475.6,678.5c7.9-4.9,13.7-9.8,17.4-14.8     c2.5-3.4,3.5-6.6,3.1-9.6c-0.3-2.3-1.1-4-2.5-5.1c-1.4-1.2-3-1.6-4.9-1.4c-1.9,0.3-3.7,1.3-5.4,3c-2.2,2.3-3.9,5.5-5,9.7     C476.7,666.3,475.8,672.4,475.6,678.5z"></path>			</g>			<g>				<path class="st0" d="M516.8,656.1l-3-2.4c5.8-7.3,10.6-12.3,14.3-15c3.7-2.6,7-4.2,9.8-4.5c1.1-0.1,2,0,2.7,0.4     c0.7,0.4,1.1,0.9,1.2,1.5c0.1,0.5,0,1.3-0.1,2.6l-1.4,16.3c4.5-6.7,10.5-13.1,17.8-19.3c3.9-3.3,7.3-5.1,10.1-5.4     c2-0.3,3.7,0.2,5,1.3c1.3,1.2,2.2,3,2.5,5.4c0.2,1.6,0.2,3.5,0,5.6c-0.4,3.5-1.6,11.2-3.6,23.1c-1.9,11.2-2.6,18.5-2.1,22     c0.1,1.1,0.4,1.9,0.8,2.4c0.4,0.5,0.9,0.7,1.5,0.6c1.5-0.2,3.7-2,6.5-5.4c2-2.4,4.1-4.7,6.1-6.8l2.4,2.6     c-4.1,6-8.5,10.9-13.3,14.9c-3,2.5-5.6,4-7.8,4.2c-2,0.3-3.6-0.2-4.9-1.5c-1.3-1.3-2.2-3.6-2.6-6.8c-0.6-4.6,0.7-16.6,4-36     c0.9-6.9,1.2-10.8,1.1-11.9c-0.2-1.6-1.3-2.3-3.2-2c-2.1,0.3-4.6,1.8-7.6,4.4c-4.5,3.9-8.1,8.3-10.8,13.1     c-1.7,3.1-2.8,7.9-3.4,14.3l-2.6,28.3l-11.7,1.6c1.1-8.2,2-16,2.7-23.4l2.9-30.8c0.1-1.2,0.1-2.1,0-2.7     c-0.2-1.4-0.8-2.1-1.9-1.9c-0.8,0.1-2,0.8-3.4,2.1C521.9,649.5,519.2,652.6,516.8,656.1z"></path>			</g>			<g>				<path class="st0" d="M660.4,665.8l3.1,2.5c-3.5,5.2-7.7,10-12.8,14.6c-5.1,4.6-9.4,7.1-13,7.6c-1.6,0.2-3-0.2-4.3-1.3     c-1.2-1.1-2-2.7-2.3-4.9c-0.6-4.2-0.1-13.1,1.3-26.7l3.8-35.6c1.4-12.9,2.9-21.6,4.4-26.1c2.4-6.9,6.3-12.5,11.8-16.8     c5.5-4.4,11.5-7,18.1-7.9c2.3-0.3,4.1,0,5.5,0.9c1.4,0.9,2.2,2.1,2.4,3.6c0.2,1.7-0.2,3.2-1.3,4.4c-1.1,1.3-2.9,2-5.3,2.4     c-1.6,0.2-3.8,0.3-6.8,0.1c-2.5-0.1-4.9,0-7,0.3c-2.1,0.3-3.7,1-4.7,2c-1.3,1.5-2.4,4.3-3,8.5c-0.7,4.2-1.6,12.4-2.8,24.6     l-3.4,34c-1.6,17-2.4,25.9-2.3,26.6c0.2,1.7,0.9,2.4,2.1,2.3c1.2-0.2,2.8-1.1,4.8-2.7C652.7,674.7,656.6,670.7,660.4,665.8z"></path>			</g>			<g>				<path class="st0" d="M713.3,609.3l5-1.8l-3.2,20.7c-1.3,8.2-2.3,17.6-3,28.2c-0.4,5.8-0.5,9.5-0.3,11.1c0.2,1.6,1,2.3,2.3,2.2     c0.8-0.1,2.1-0.8,3.8-2.2c3-2.4,5.8-5.2,8.4-8.5l2.9,2.7c-5.2,6.2-8.6,10.1-10.1,11.4c-3.1,2.8-6,4.9-8.9,6.4     c-1.9,1-3.8,1.6-5.7,1.9c-1.4,0.2-2.4,0-3.2-0.5c-0.8-0.5-1.2-1.4-1.4-2.6c-0.1-0.8,0-1.9,0.2-3.3l1.7-11.1     c-3.8,6-8.5,11.4-14.2,16.1c-3.5,2.9-6.8,4.6-10,5c-3,0.4-5.5-0.3-7.4-2.3c-2.6-2.6-4.2-6.2-4.8-10.8     c-0.8-5.6-0.1-11.9,1.9-19.2c2-7.2,5.2-13.9,9.4-20.2c4.2-6.2,8.9-11,14.1-14.4c4-2.6,9.3-4.3,15.9-5.2c1.7-0.2,3.4-0.3,5.2-0.4     L713.3,609.3z M705.2,622.6c-2.9-0.2-5.4-0.2-7.3,0.1c-4.7,0.6-8.6,2.5-11.8,5.6c-3.2,3.1-5.8,8.2-7.9,15.3     c-2.1,7.1-2.7,14.1-1.8,20.8c0.5,3.6,1.4,6,2.9,7.5c1.4,1.4,3.1,2,5,1.7c3.6-0.5,7.2-3,10.8-7.4c3.6-4.5,5.9-10.5,6.8-18.1     L705.2,622.6z"></path>			</g>			<g>				<path class="st0" d="M786.3,668l-11.7,1.6l2.6-21.9c1.3-10.7,2.3-20.9,3-30.5c0.2-2.4,0.2-3.8,0.1-4.4c-0.2-1.3-0.8-1.8-2-1.7     c-0.8,0.1-1.9,0.8-3.4,2.1c-1.5,1.3-4.1,4.3-7.7,9.2l-2.8-2.4c4.3-6.1,8.7-10.8,13.4-14.2c4.6-3.4,8.3-5.2,11-5.6     c0.9-0.1,1.7,0,2.3,0.4c0.6,0.4,1,0.9,1.1,1.6c0.1,0.7,0,2.5-0.3,5.6l-1.5,14.6c4.2-9.1,9.2-17.1,15-23.9     c2.8-3.3,5.3-5.1,7.4-5.4c1.6-0.2,3,0.2,4.1,1c1.2,0.9,1.9,2,2.1,3.3c0.2,1.4-0.2,2.7-1,3.8c-0.9,1.1-3.3,2.7-7.2,4.6     c-3.7,1.8-6.6,3.8-8.8,6c-2.2,2.2-4.5,5.3-6.9,9.5c-2.4,4.2-4,7.7-4.8,10.7c-0.7,2.9-1.6,9.7-2.6,20.2L786.3,668z"></path>			</g>			<g>				<path class="st0" d="M864.4,592.2l11.2-1.5l-3.7,28.5c-2.2,16.6-3.1,25.9-2.8,28.1c0.1,1,0.5,1.7,1,2.2c0.5,0.5,1.1,0.7,1.7,0.6     c0.9-0.1,1.9-0.6,3-1.6c1.6-1.4,4.4-4.9,8.6-10.4l3,2.6c-9,12.4-16.1,18.9-21,19.6c-1.7,0.2-3.2-0.2-4.6-1.3     c-1.4-1.1-2.2-2.9-2.5-5.2c-0.4-2.7-0.3-6.4,0.2-11.1c-3.9,6-9.1,11.4-15.4,16.4c-4.2,3.3-8,5.2-11.3,5.7     c-1.8,0.2-3.3-0.2-4.6-1.2c-1.2-1.1-2-2.9-2.3-5.5c-0.3-2.1-0.4-4.3-0.2-6.7c0.2-3.4,1.1-10.3,2.5-20.6     c1.8-13.1,2.5-20.9,2.2-23.5c-0.2-1.5-0.8-2.1-1.9-2c-0.9,0.1-2.2,0.8-3.7,2c-1.5,1.2-3.9,3.9-7.4,8.2l-3.8-2.3     c6.2-7.2,11-12.1,14.4-14.6c3.4-2.5,6.3-3.9,8.5-4.2c1.3-0.2,2.3,0.1,3.3,1c0.9,0.8,1.5,2.2,1.8,4.1c0.5,3.6-0.2,12.8-2,27.4     c-1.6,13.2-2.3,20.7-2.1,22.5c0.1,1.1,0.6,2,1.5,2.7c0.8,0.7,1.6,1,2.5,0.9c2.9-0.4,6.8-3.4,11.5-9c4.7-5.6,7.5-11.6,8.4-18     L864.4,592.2z"></path>			</g>			<g>				<path class="st0" d="M905.4,572.2l11.8-6.5l-2.7,22.8l16.3-2.2l-0.5,5.8l-16.3,2.2l-3.3,27.3c-1.1,8.2-1.4,13.9-1,16.9     c0.2,1.4,0.6,2.4,1.3,2.9c0.7,0.5,1.5,0.8,2.6,0.6c1.6-0.2,4-1.5,7.1-3.9c4.1-3.2,7.8-6.6,11.4-10.4l3.5,3.2     c-10.3,10.2-17.3,16.5-20.9,19c-3.6,2.5-6.6,3.8-9,4.2c-1.9,0.2-3.6-0.2-4.9-1.5c-1.3-1.3-2.2-3.5-2.6-6.7     c-0.5-3.8-0.3-9.7,0.6-17.7l3.8-32.4l-12.7,1.7l0.6-5.8l12.8-1.7L905.4,572.2z"></path>			</g>			<g>				<path class="st0" d="M990,571.8l5-1.8l-3.2,20.7c-1.3,8.2-2.3,17.7-3,28.2c-0.4,5.8-0.5,9.5-0.3,11.1c0.2,1.6,1,2.4,2.3,2.2     c0.9-0.1,2.1-0.8,3.8-2.2c3-2.4,5.8-5.2,8.4-8.5l2.9,2.7c-5.2,6.3-8.6,10.1-10.1,11.5c-3,2.7-6,4.9-8.9,6.4     c-1.9,1-3.8,1.6-5.7,1.9c-1.4,0.2-2.4,0-3.2-0.5c-0.8-0.5-1.2-1.4-1.4-2.6c-0.1-0.8,0-1.9,0.2-3.3l1.7-11.1     c-3.8,6-8.5,11.4-14.2,16.1c-3.5,2.9-6.8,4.6-10,5c-3,0.4-5.5-0.4-7.4-2.3c-2.6-2.6-4.2-6.2-4.8-10.9     c-0.8-5.6-0.1-11.9,1.9-19.1c2-7.2,5.2-13.9,9.4-20.1c4.2-6.2,8.9-11,14.1-14.4c4-2.6,9.3-4.3,15.9-5.2c1.7-0.2,3.4-0.3,5.2-0.4     L990,571.8z M981.9,585.1c-2.9-0.2-5.4-0.2-7.3,0.1c-4.7,0.6-8.7,2.5-11.8,5.6c-3.2,3.1-5.8,8.2-7.9,15.3     c-2.1,7.1-2.7,14.1-1.8,20.8c0.5,3.5,1.4,6,2.8,7.4c1.4,1.4,3.1,2,5,1.7c3.6-0.5,7.2-3,10.8-7.4c3.6-4.5,5.9-10.5,6.8-18.1     L981.9,585.1z"></path>			</g>			<g>				<path class="st0" d="M1026.9,618c2.1-0.3,3.9,0.3,5.5,1.6c1.6,1.4,2.6,3.2,2.9,5.6c0.5,3.4,0,6.2-1.3,8.3     c-1.4,2.2-3.3,3.4-5.7,3.7c-2,0.3-3.9-0.2-5.4-1.5c-1.6-1.3-2.5-3-2.8-5.3c-0.5-3.3,0.1-6.3,1.7-9.1     C1022.8,619.5,1024.5,618.4,1026.9,618z M1029.9,608.5l-4.5,0.6c0-25.4-0.4-46.9-1.3-64.4c-0.1-1,0-1.7,0.4-2.2     c0.7-0.9,2.1-1.7,4.2-2.6c3.5-1.4,5.9-2.2,7.4-2.4c1.1-0.2,1.7,0.3,1.9,1.4c0.1,0.7,0,1.7-0.2,3c-0.4,2.1-1.6,10.9-3.5,26.5     L1029.9,608.5z"></path>			</g>		</g>	</g></g></svg>